<svg width="56" height="56" viewBox="0 0 56 56" fill="none" xmlns="http://www.w3.org/2000/svg">
<circle cx="28" cy="28" r="28" fill="#474747"/>
<rect width="28" height="28" transform="translate(14 14)" fill="#474747"/>
<path d="M35.9231 26.8392H22.8914L28.5847 21.1458C29.0397 20.6908 29.0397 19.9442 28.5847 19.4892C28.3668 19.2707 28.0708 19.1479 27.7622 19.1479C27.4536 19.1479 27.1577 19.2707 26.9397 19.4892L19.2514 27.1775C18.7964 27.6325 18.7964 28.3675 19.2514 28.8225L26.9397 36.5108C27.3947 36.9658 28.1297 36.9658 28.5847 36.5108C29.0397 36.0558 29.0397 35.3208 28.5847 34.8658L22.8914 29.1725H35.9231C36.5647 29.1725 37.0897 28.6475 37.0897 28.0058C37.0897 27.3642 36.5647 26.8392 35.9231 26.8392Z" fill="white"/>
</svg>
